<?xml version="1.0" encoding="UTF-8" standalone="no"?>
<!-- Uploaded to: SVG Repo, www.svgrepo.com, Generator: SVG Repo Mixer Tools -->

<svg
   fill="#000000"
   version="1.1"
   id="Capa_1"
   width="800px"
   height="800px"
   viewBox="0 0 345.804 345.804"
   xml:space="preserve"
   sodipodi:docname="home_eyeHawk.svg"
   inkscape:version="1.2.2 (732a01da63, 2022-12-09)"
   xmlns:inkscape="http://www.inkscape.org/namespaces/inkscape"
   xmlns:sodipodi="http://sodipodi.sourceforge.net/DTD/sodipodi-0.dtd"
   xmlns="http://www.w3.org/2000/svg"
   xmlns:svg="http://www.w3.org/2000/svg"><defs
   id="defs30264" /><sodipodi:namedview
   id="namedview30262"
   pagecolor="#333333"
   bordercolor="#000000"
   borderopacity="0.25"
   inkscape:showpageshadow="2"
   inkscape:pageopacity="0.2"
   inkscape:pagecheckerboard="0"
   inkscape:deskcolor="#d1d1d1"
   showgrid="false"
   inkscape:zoom="0.295"
   inkscape:cx="144.0678"
   inkscape:cy="400"
   inkscape:window-width="1440"
   inkscape:window-height="829"
   inkscape:window-x="-8"
   inkscape:window-y="-8"
   inkscape:window-maximized="1"
   inkscape:current-layer="Capa_1" />
<g
   id="g30259"
   style="stroke:#bcbcbc;stroke-opacity:1;fill:#ffffff;fill-opacity:1">
	<path
   d="M343.288,159.838L181.905,27.941c-5.242-4.283-12.77-4.283-18.009,0l-41.336,33.79V44.193c0-3.788-3.066-6.848-6.854-6.848   H75.928c-3.788,0-6.854,3.063-6.854,6.848v61.251L2.516,159.838c-2.933,2.391-3.36,6.711-0.97,9.641   c1.357,1.654,3.33,2.523,5.32,2.523c1.524,0,3.053-0.511,4.328-1.545l34.55-28.245v172.011c0,3.785,3.066,6.852,6.846,6.852   h240.626c3.781,0,6.854-3.066,6.854-6.852V142.216l34.55,28.245c1.273,1.037,2.807,1.545,4.326,1.545   c1.984,0,3.956-0.87,5.314-2.524C346.648,166.549,346.221,162.235,343.288,159.838z M82.779,51.041h26.071v21.888l-26.071,21.31   V51.041z M286.367,307.369H59.44V131.015l107.596-87.939c3.414-2.791,8.316-2.791,11.731,0l107.6,87.939V307.369z"
   id="path30257"
   style="stroke:#bcbcbc;stroke-opacity:1;fill:#ffffff;fill-opacity:1" />
</g>
<path
   d="m 207.40532,140.43552 c 2.06371,0.54395 4.12326,0.93817 4.58032,1.00085 1.44289,0.0389 -7.49719,3.34152 -10.14281,3.71113 -1.5865,0.26654 -4.93909,-0.24314 -8.22833,-1.2034 l -5.50865,-1.64964 3.00873,-0.97764 c 4.89004,-1.55146 12.0875,-1.96698 16.29074,-0.8813 z m -35.92895,-9.67169 c -26.48107,5.64108 -48.86994,16.63596 -69.86196,34.3279 -6.304702,5.3303 -20.836651,20.60616 -20.801988,21.87737 0.0061,0.22444 2.920604,-1.42443 6.423217,-3.7621 7.605952,-4.91589 21.663691,-12.54695 29.091051,-15.66225 6.52575,-2.79202 14.72363,-5.47878 12.93637,-4.23422 -0.82005,0.54553 -3.94951,2.64887 -7.07918,4.75215 -7.1529,4.829 -20.21737,18.27003 -25.020033,25.80531 -7.422264,11.64513 -11.958968,23.36343 -14.319371,36.9694 -1.439726,8.41862 -2.252609,20.33736 -1.266763,20.31125 0.303457,-0.007 1.531165,-2.2854 2.744725,-5.08615 4.987578,-11.87993 16.789672,-27.0833 27.712112,-35.60388 4.90458,-3.79664 13.03096,-9.10045 14.09264,-9.12851 0.30344,-0.007 -0.0927,2.09769 -0.85992,4.66191 -2.68997,9.87353 -3.55803,19.77347 -3.04339,35.84708 0.4377,13.23253 0.7444,16.14254 2.32569,21.26351 0.99814,3.19097 2.06501,6.15569 2.45445,6.51947 0.31239,0.29067 1.29987,-2.42886 2.18727,-6.04402 5.37817,-22.59026 18.25505,-42.91026 38.19345,-60.27497 22.75693,-19.75912 54.98541,-34.45711 76.82384,-35.03662 9.63038,-0.25559 14.47282,2.01031 14.60526,6.87048 0.11952,4.33669 6.80249,-3.77218 8.52061,-10.32747 2.34559,-8.59234 -2.5127,-16.99351 -11.31033,-19.60334 -4.59057,-1.37472 -19.41571,-2.40294 -23.34258,-1.70016 -3.16843,0.68266 -3.32616,0.46212 -1.65353,-2.20086 1.0899,-1.74992 1.08192,-2.04908 -0.10657,-3.73855 -2.60437,-3.67212 -10.27908,-6.83563 -20.33941,-8.43922 -7.31616,-1.15276 -30.35766,-0.16754 -39.11096,1.63649 z m 48.62206,52.13481 c -15.19124,10.57941 -26.95887,27.0539 -31.35069,44.08077 -1.2308,4.97113 -1.45591,7.82044 -1.22942,16.12007 0.24325,8.89769 0.52067,10.76092 2.4861,16.02142 2.7863,7.55819 7.1263,13.65355 13.89259,19.68439 5.20901,4.57585 13.68082,9.13972 18.79385,10.20122 2.21339,0.46446 2.21339,0.46446 -1.48113,-4.22566 -5.2663,-6.66938 -11.19791,-18.25941 -13.70939,-26.87256 -2.67761,-9.13241 -3.92386,-24.21397 -2.72398,-33.07518 1.94656,-14.86694 8.37728,-29.47889 17.99649,-41.25719 1.98407,-2.37231 3.3718,-4.35454 3.14425,-4.34856 -0.30345,0.007 -2.91442,1.64872 -5.81867,3.67128 z m -42.86683,30.84312 c -8.30496,7.10427 -15.68596,17.47629 -19.30215,26.7758 -6.09887,15.65061 -4.49407,32.74295 3.99521,43.51704 4.71717,6.01033 12.56587,9.99236 18.31248,9.24129 l 2.34454,-0.28681 -2.1126,-2.33832 c -3.20698,-3.50657 -6.75572,-11.19414 -8.14232,-17.51744 -2.5092,-11.30682 -1.9028,-28.00896 1.51896,-41.64311 1.57875,-6.10271 5.99441,-16.69536 8.62018,-20.58108 2.26491,-3.20279 0.8426,-2.49169 -5.23455,2.83248 z"
   id="path18288"
   style="fill:#eeeeee;fill-opacity:1;stroke-width:0.753244" /></svg>
