<?xml version="1.0" encoding="UTF-8" standalone="no"?>
<!-- Created with Inkscape (http://www.inkscape.org/) -->

<svg
   width="541mm"
   height="500mm"
   viewBox="0 0 541 500"
   version="1.1"
   id="svg39706"
   inkscape:version="1.2.2 (732a01da63, 2022-12-09)"
   sodipodi:docname="iconOjodeHalcon.svg"
   xmlns:inkscape="http://www.inkscape.org/namespaces/inkscape"
   xmlns:sodipodi="http://sodipodi.sourceforge.net/DTD/sodipodi-0.dtd"
   xmlns="http://www.w3.org/2000/svg"
   xmlns:svg="http://www.w3.org/2000/svg">
  <sodipodi:namedview
     id="namedview39708"
     pagecolor="#333333"
     bordercolor="#000000"
     borderopacity="0.25"
     inkscape:showpageshadow="2"
     inkscape:pageopacity="0"
     inkscape:pagecheckerboard="0"
     inkscape:deskcolor="#d1d1d1"
     inkscape:document-units="mm"
     showgrid="false"
     inkscape:zoom="0.14866305"
     inkscape:cx="511.2232"
     inkscape:cy="894.6406"
     inkscape:window-width="1440"
     inkscape:window-height="829"
     inkscape:window-x="-8"
     inkscape:window-y="-8"
     inkscape:window-maximized="1"
     inkscape:current-layer="layer1" />
  <defs
     id="defs39703" />
  <g
     inkscape:label="Layer 1"
     inkscape:groupmode="layer"
     id="layer1">
    <path
       d="m 365.68619,35.278556 c 5.9354,1.637293 11.85865,2.825972 13.17327,3.013869 4.14968,0.115139 -21.56226,10.063841 -29.17181,11.17697 -4.56237,0.801382 -14.20502,-0.732372 -23.66492,-3.623533 l -15.84288,-4.96826 8.65289,-2.944859 c 14.06398,-4.67225 34.76468,-5.923812 46.85345,-2.653411 z M 262.35203,6.1503176 C 186.19082,23.139909 121.79873,56.253273 61.424174,109.53649 43.291733,125.58933 1.4967077,171.59595 1.5964767,175.42465 c 0.0098,0.67462 8.399797,-4.28997 18.4737643,-11.33037 21.874977,-14.80511 62.305887,-37.78792 83.667659,-47.17 18.76839,-8.40929 42.34592,-16.50071 37.20575,-12.75254 -2.35774,1.64113 -11.35896,7.97791 -20.36005,14.31239 -20.5726,14.5436 -58.146943,55.02405 -71.959426,77.71813 -21.346776,35.07159 -34.394627,70.36404 -41.1834743,111.34105 -4.140618,25.35443 -6.478688,61.25041 -3.643295,61.17179 0.872724,-0.0278 4.403749,-6.88318 7.8940983,-15.31815 14.344596,-35.77868 48.288449,-81.56714 79.701665,-107.22864 14.106162,-11.43426 37.478452,-27.40773 40.531612,-27.49248 0.87247,-0.0267 -0.26857,6.31762 -2.47137,14.04054 -7.73644,29.73598 -10.2331,59.55172 -8.75286,107.96102 1.25691,39.85238 2.14019,48.61673 6.68857,64.03958 2.86964,9.6106 5.93931,18.53905 7.05924,19.63455 0.89671,0.87809 3.73772,-7.31497 6.29096,-18.20244 15.46818,-68.03578 52.50245,-129.23365 109.84709,-181.53103 65.45014,-59.50918 158.1418,-103.77497 220.95056,-105.52041 27.69723,-0.77075 41.62436,6.05456 42.00582,20.69173 0.34022,13.06084 19.56427,-11.36064 24.50568,-31.10335 6.74606,-25.877789 -7.2263,-51.17928 -32.52948,-59.039477 -13.2025,-4.140418 -55.8408,-7.237104 -67.13458,-5.120488 -9.11251,2.055249 -9.56647,1.391899 -4.7556,-6.628206 3.13604,-5.27041 3.11234,-6.171122 -0.29411,-11.25941 C 425.84427,15.578792 403.77129,6.0513866 374.8371,1.2219248 353.79521,-2.2520684 287.52626,0.71578086 262.35146,6.1503176 Z M 402.19251,163.16558 c -43.69145,31.86219 -77.53566,81.47854 -90.16684,132.75865 -3.53814,14.97155 -4.18743,23.55298 -3.53589,48.54926 0.69847,26.79725 1.49878,32.40897 7.15014,48.25164 8.01376,22.76312 20.49571,41.12084 39.95631,59.28413 14.98154,13.78093 39.34672,27.52621 54.05233,30.72299 6.36568,1.39959 6.36568,1.39959 -4.26008,-12.72648 -15.14592,-20.08625 -32.20592,-54.99222 -39.42915,-80.9325 -7.70083,-27.50436 -11.28519,-72.9255 -7.8343,-99.61313 5.59865,-44.77498 24.09382,-88.78196 51.75922,-124.25466 5.70626,-7.14467 9.69748,-13.11488 9.04317,-13.09685 -0.87245,0.0267 -8.38197,4.96557 -16.73483,11.05695 z m -123.28784,92.89056 c -23.88586,21.39613 -45.11427,52.63368 -55.51472,80.6411 -17.54069,47.13512 -12.92515,98.61231 11.49088,131.06081 13.56662,18.10156 36.14003,30.0941 52.66773,27.83222 l 6.74287,-0.86289 -6.07589,-7.04267 c -9.22349,-10.5604 -19.42959,-33.71348 -23.41791,-52.75752 -7.21664,-34.05278 -5.47221,-84.35478 4.36904,-125.41691 4.5404,-18.37958 17.23997,-50.28162 24.79181,-61.98467 6.51431,-9.6459 2.42323,-7.50397 -15.0547,8.53081 z"
       id="path18288"
       style="fill:#eeeeee;fill-opacity:1;stroke-width:2.21688" />
  </g>
</svg>
