<?xml version="1.0" encoding="UTF-8" standalone="no"?>
<svg
   version="1.0"
   width="512.000000pt"
   height="512.000000pt"
   viewBox="0 0 512.000000 512.000000"
   preserveAspectRatio="xMidYMid meet"
   id="svg10"
   sodipodi:docname="rotate_svg.svg"
   inkscape:version="1.2.2 (732a01da63, 2022-12-09)"
   xmlns:inkscape="http://www.inkscape.org/namespaces/inkscape"
   xmlns:sodipodi="http://sodipodi.sourceforge.net/DTD/sodipodi-0.dtd"
   xmlns="http://www.w3.org/2000/svg"
   xmlns:svg="http://www.w3.org/2000/svg">
  <defs
     id="defs14" />
  <sodipodi:namedview
     id="namedview12"
     pagecolor="#333333"
     bordercolor="#000000"
     borderopacity="0.25"
     inkscape:showpageshadow="2"
     inkscape:pageopacity="0"
     inkscape:pagecheckerboard="0"
     inkscape:deskcolor="#d1d1d1"
     inkscape:document-units="pt"
     showgrid="false"
     inkscape:zoom="0.48889805"
     inkscape:cx="306.81243"
     inkscape:cy="147.26997"
     inkscape:window-width="1440"
     inkscape:window-height="829"
     inkscape:window-x="-8"
     inkscape:window-y="-8"
     inkscape:window-maximized="1"
     inkscape:current-layer="g8" />
  <g
     transform="translate(0.000000,512.000000) scale(0.100000,-0.100000)"
     fill="#000000"
     stroke="none"
     id="g8">
    <path
       id="path6"
       d="M 15,2293 C 81,1706 324,1183 723,773 1213,269 1855,1 2570,0 h 125 L 2291,404 1886,809 1777,707 C 1717,651 1649,590 1627,571 l -40,-35 -103,52 c -204,104 -370,229 -549,413 -244,251 -408,524 -521,867 -40,120 -83,310 -99,435 l -6,47 H 159 9 Z m 1795,2527 c -59,-28 -126,-92 -780,-748 -564,-565 -721,-728 -740,-767 -35,-72 -39,-171 -10,-250 22,-58 60,-98 1349,-1386 C 2703,595 2965,338 3005,319 c 40,-19 66,-24 130,-24 142,0 100,-36 916,782 697,699 727,730 749,788 28,76 24,169 -10,241 -35,73 -2642,2681 -2715,2715 -35,17 -72,25 -125,27 -67,3 -82,0 -140,-28 z M 3233,3242 4510,1965 3827,1282 3145,600 1865,1880 585,3160 l 680,680 c 374,374 682,680 685,680 3,0 580,-575 1283,-1278 z m -431,1472 406,-407 147,136 c 81,76 152,137 157,137 19,0 207,-102 289,-157 128,-86 193,-138 302,-242 375,-359 608,-825 682,-1363 l 6,-48 h 160 160 l -7,53 c -125,1020 -799,1852 -1754,2167 -255,84 -459,118 -760,127 l -195,5 z"
       style="fill:#f8f8f8;fill-opacity:1" />
  </g>
</svg>
